<svg xmlns="http://www.w3.org/2000/svg" viewBox="0 0 800 600">
  <path d="M729.83 151.344h46.874v-49.907H729.83v49.907zM729.83 201.25h46.874v-49.906H729.83v49.906zM729.83 251.125h46.874V201.25H729.83v49.875z" fill="none" stroke="#000" stroke-width=".97"/>
  <path d="M729.83 301.03h46.874v-49.905H729.83v49.906z" fill="none" stroke="#000" stroke-width=".97"/>
  <path d="M729.83 350.937h46.874V301.03H729.83v49.907zM729.83 400.812h46.874v-49.875H729.83v49.875z" fill="none" stroke="#000" stroke-width=".97"/>
  <path d="M729.83 450.72h46.874V400.81H729.83v49.907zM729.83 500.625h46.874V450.72H729.83v49.905zM73.735 450.72H26.86v49.905h46.875V450.72zM73.735 400.812H26.86v49.907h46.875V400.81z" fill="none" stroke="#000" stroke-width=".97"/>
  <path d="M73.735 350.937H26.86v49.875h46.875v-49.875zM73.735 301.03H26.86v49.907h46.875V301.03z" fill="none" stroke="#000" stroke-width=".97"/>
  <path d="M73.735 251.125H26.86v49.906h46.875v-49.905zM73.735 201.25H26.86v49.875h46.875V201.25zM73.735 151.344H26.86v49.906h46.875v-49.906zM73.735 101.437H26.86v49.907h46.875v-49.907zM401.766 350.937V301.03h-46.843v49.907h46.843z" fill="none" stroke="#000" stroke-width=".97"/>
  <path d="M448.64 301.03h-46.874v49.907h46.875V301.03z" fill="none" stroke="#000" stroke-width=".97"/>
  <path d="M401.766 251.125v49.906h46.875v-49.905h-46.874zM354.923 251.125v49.906h46.843v-49.905h-46.843zM308.048 301.03h46.875v-49.905h-46.875v49.906z" fill="none" stroke="#000" stroke-width=".97"/>
  <path d="M308.048 350.937h46.875V301.03h-46.875v49.907zM354.923 400.812v-49.875h-46.875v49.875h46.875zM401.766 400.812v-49.875h-46.843v49.875h46.843z" fill="none" stroke="#000" stroke-width=".97"/>
  <path d="M448.64 400.812v-49.875h-46.874v49.875h46.875z" fill="none" stroke="#000" stroke-width=".97"/>
  <path d="M495.516 350.937H448.64v49.875h46.876v-49.875zM495.516 301.03H448.64v49.907h46.876V301.03z" fill="none" stroke="#000" stroke-width=".97"/>
  <path d="M495.516 251.125H448.64v49.906h46.876v-49.905zM448.64 201.25v49.875h46.876V201.25H448.64z" fill="none" stroke="#000" stroke-width=".97"/>
  <path d="M401.766 201.25v49.875h46.875V201.25h-46.874zM354.923 201.25v49.875h46.843V201.25h-46.843zM308.048 201.25v49.875h46.875V201.25h-46.875zM261.173 251.125h46.875V201.25h-46.875v49.875z" fill="none" stroke="#000" stroke-width=".97"/>
  <path d="M261.173 301.03h46.875v-49.905h-46.875v49.906z" fill="none" stroke="#000" stroke-width=".97"/>
  <path d="M261.173 350.937h46.875V301.03h-46.875v49.907zM261.173 400.812h46.875v-49.875h-46.875v49.875z" fill="none" stroke="#000" stroke-width=".97"/>
  <path d="M308.048 450.72V400.81h-46.875v49.907h46.875zM354.923 450.72V400.81h-46.875v49.907h46.875zM401.766 450.72V400.81h-46.843v49.907h46.843z" fill="none" stroke="#000" stroke-width=".97"/>
  <path d="M448.64 450.72V400.81h-46.874v49.907h46.875z" fill="none" stroke="#000" stroke-width=".97"/>
  <path d="M495.516 450.72V400.81H448.64v49.907h46.876zM542.36 400.812h-46.844v49.907h46.844V400.81z" fill="none" stroke="#000" stroke-width=".97"/>
  <path d="M542.36 350.937h-46.844v49.875h46.844v-49.875zM542.36 301.03h-46.844v49.907h46.844V301.03z" fill="none" stroke="#000" stroke-width=".97"/>
  <path d="M542.36 251.125h-46.844v49.906h46.844v-49.905zM542.36 201.25h-46.844v49.875h46.844V201.25zM495.516 151.344v49.906h46.844v-49.906h-46.844zM448.64 151.344v49.906h46.876v-49.906H448.64z" fill="none" stroke="#000" stroke-width=".97"/>
  <path d="M401.766 151.344v49.906h46.875v-49.906h-46.874zM354.923 151.344v49.906h46.843v-49.906h-46.843zM308.048 151.344v49.906h46.875v-49.906h-46.875zM261.173 151.344v49.906h46.875v-49.906h-46.875zM214.33 201.25h46.843v-49.906H214.33v49.906zM214.33 251.125h46.843V201.25H214.33v49.875z" fill="none" stroke="#000" stroke-width=".97"/>
  <path d="M214.33 301.03h46.843v-49.905H214.33v49.906z" fill="none" stroke="#000" stroke-width=".97"/>
  <path d="M214.33 350.937h46.843V301.03H214.33v49.907zM214.33 400.812h46.843v-49.875H214.33v49.875z" fill="none" stroke="#000" stroke-width=".97"/>
  <path d="M214.33 450.72h46.843V400.81H214.33v49.907zM261.173 500.625V450.72H214.33v49.905h46.843zM308.048 500.625V450.72h-46.875v49.905h46.875zM354.923 500.625V450.72h-46.875v49.905h46.875zM401.766 500.625V450.72h-46.843v49.905h46.843z" fill="none" stroke="#000" stroke-width=".97"/>
  <path d="M448.64 500.625V450.72h-46.874v49.905h46.875z" fill="none" stroke="#000" stroke-width=".97"/>
  <path d="M495.516 500.625V450.72H448.64v49.905h46.876zM542.36 500.625V450.72h-46.844v49.905h46.844zM589.235 450.72H542.36v49.905h46.875V450.72zM589.235 400.812H542.36v49.907h46.875V400.81z" fill="none" stroke="#000" stroke-width=".97"/>
  <path d="M589.235 350.937H542.36v49.875h46.875v-49.875zM589.235 301.03H542.36v49.907h46.875V301.03z" fill="none" stroke="#000" stroke-width=".97"/>
  <path d="M589.235 251.125H542.36v49.906h46.875v-49.905zM589.235 201.25H542.36v49.875h46.875V201.25zM589.235 151.344H542.36v49.906h46.875v-49.906zM542.36 101.437v49.907h46.875v-49.907H542.36zM495.516 101.437v49.907h46.844v-49.907h-46.844zM448.64 101.437v49.907h46.876v-49.907H448.64z" fill="none" stroke="#000" stroke-width=".97"/>
  <path d="M401.766 101.437v49.907h46.875v-49.907h-46.874zM354.923 101.437v49.907h46.843v-49.907h-46.843zM308.048 101.437v49.907h46.875v-49.907h-46.875zM261.173 101.437v49.907h46.875v-49.907h-46.875zM214.33 101.437v49.907h46.843v-49.907H214.33zM167.454 151.344h46.875v-49.907h-46.876v49.907zM167.454 201.25h46.875v-49.906h-46.876v49.906zM167.454 251.125h46.875V201.25h-46.876v49.875z" fill="none" stroke="#000" stroke-width=".97"/>
  <path d="M167.454 301.03h46.875v-49.905h-46.876v49.906z" fill="none" stroke="#000" stroke-width=".97"/>
  <path d="M167.454 350.937h46.875V301.03h-46.876v49.907zM167.454 400.812h46.875v-49.875h-46.876v49.875z" fill="none" stroke="#000" stroke-width=".97"/>
  <path d="M167.454 450.72h46.875V400.81h-46.876v49.907zM167.454 500.625h46.875V450.72h-46.876v49.905zM214.33 550.5v-49.875h-46.876V550.5h46.875zM261.173 550.5v-49.875H214.33V550.5h46.843zM308.048 550.5v-49.875h-46.875V550.5h46.875zM354.923 550.5v-49.875h-46.875V550.5h46.875zM401.766 550.5v-49.875h-46.843V550.5h46.843z" fill="none" stroke="#000" stroke-width=".97"/>
  <path d="M448.64 550.5v-49.875h-46.874V550.5h46.875z" fill="none" stroke="#000" stroke-width=".97"/>
  <path d="M495.516 550.5v-49.875H448.64V550.5h46.876zM542.36 550.5v-49.875h-46.844V550.5h46.844zM589.235 550.5v-49.875H542.36V550.5h46.875zM636.11 500.625h-46.875V550.5h46.875v-49.875zM636.11 450.72h-46.875v49.905h46.875V450.72zM636.11 400.812h-46.875v49.907h46.875V400.81z" fill="none" stroke="#000" stroke-width=".97"/>
  <path d="M636.11 350.937h-46.875v49.875h46.875v-49.875zM636.11 301.03h-46.875v49.907h46.875V301.03z" fill="none" stroke="#000" stroke-width=".97"/>
  <path d="M636.11 251.125h-46.875v49.906h46.875v-49.905zM636.11 201.25h-46.875v49.875h46.875V201.25zM636.11 151.344h-46.875v49.906h46.875v-49.906zM636.11 101.437h-46.875v49.907h46.875v-49.907z" fill="none" stroke="#000" stroke-width=".97"/>
  <path d="M589.235 51.563v49.874h46.875V51.563h-46.875zM542.36 51.563v49.874h46.875V51.563H542.36zM495.516 51.563v49.874h46.844V51.563h-46.844zM448.64 51.563v49.874h46.876V51.563H448.64z" fill="none" stroke="#000" stroke-width=".97"/>
  <path d="M401.766 51.563v49.874h46.875V51.563h-46.874zM354.923 51.563v49.874h46.843V51.563h-46.843zM308.048 51.563v49.874h46.875V51.563h-46.875zM261.173 51.563v49.874h46.875V51.563h-46.875zM214.33 51.563v49.874h46.843V51.563H214.33zM167.454 51.563v49.874h46.875V51.563h-46.876z" fill="none" stroke="#000" stroke-width=".97"/>
  <path d="M120.61 101.437h46.844V51.562H120.61v49.875zM120.61 101.437V51.562H73.735v49.875h46.875zM120.61 151.344h46.844v-49.907H120.61v49.907zM120.61 151.344v-49.907H73.735v49.907h46.875zM120.61 201.25h46.844v-49.906H120.61v49.906zM120.61 201.25v-49.906H73.735v49.906h46.875zM120.61 251.125h46.844V201.25H120.61v49.875zM120.61 251.125V201.25H73.735v49.875h46.875z" fill="none" stroke="#000" stroke-width=".97"/>
  <path d="M120.61 301.03h46.844v-49.905H120.61v49.906zM120.61 301.03v-49.905H73.735v49.906h46.875z" fill="none" stroke="#000" stroke-width=".97"/>
  <path d="M120.61 350.937h46.844V301.03H120.61v49.907zM120.61 350.937V301.03H73.735v49.907h46.875zM120.61 400.812h46.844v-49.875H120.61v49.875zM120.61 400.812v-49.875H73.735v49.875h46.875z" fill="none" stroke="#000" stroke-width=".97"/>
  <path d="M120.61 450.72h46.844V400.81H120.61v49.907zM120.61 450.72V400.81H73.735v49.907h46.875zM120.61 500.625h46.844V450.72H120.61v49.905zM120.61 500.625V450.72H73.735v49.905h46.875zM120.61 550.5h46.844v-49.875H120.61V550.5zM120.61 550.5v-49.875H73.735V550.5h46.875zM167.454 600.406V550.5H120.61v49.906h46.844zM214.33 600.406V550.5h-46.876v49.906h46.875zM261.173 600.406V550.5H214.33v49.906h46.843zM308.048 600.406V550.5h-46.875v49.906h46.875zM354.923 600.406V550.5h-46.875v49.906h46.875zM401.766 600.406V550.5h-46.843v49.906h46.843z" fill="none" stroke="#000" stroke-width=".97"/>
  <path d="M448.64 600.406V550.5h-46.874v49.906h46.875z" fill="none" stroke="#000" stroke-width=".97"/>
  <path d="M495.516 600.406V550.5H448.64v49.906h46.876zM542.36 600.406V550.5h-46.844v49.906h46.844zM589.235 600.406V550.5H542.36v49.906h46.875zM636.11 600.406V550.5h-46.875v49.906h46.875zM682.954 550.5H636.11v49.906h46.844V550.5zM682.954 500.625H636.11V550.5h46.844v-49.875z" fill="none" stroke="#000" stroke-width=".97"/>
  <path d="M682.954 500.625V550.5h46.875v-49.875h-46.876zM682.954 450.72H636.11v49.905h46.844V450.72z" fill="none" stroke="#000" stroke-width=".97"/>
  <path d="M682.954 450.72v49.905h46.875V450.72h-46.876zM682.954 400.812H636.11v49.907h46.844V400.81z" fill="none" stroke="#000" stroke-width=".97"/>
  <path d="M682.954 400.812v49.907h46.875V400.81h-46.876z" fill="none" stroke="#000" stroke-width=".97"/>
  <path d="M682.954 350.937H636.11v49.875h46.844v-49.875z" fill="none" stroke="#000" stroke-width=".97"/>
  <path d="M682.954 350.937v49.875h46.875v-49.875h-46.876zM682.954 301.03H636.11v49.907h46.844V301.03z" fill="none" stroke="#000" stroke-width=".97"/>
  <path d="M682.954 301.03v49.907h46.875V301.03h-46.876z" fill="none" stroke="#000" stroke-width=".97"/>
  <path d="M682.954 251.125H636.11v49.906h46.844v-49.905z" fill="none" stroke="#000" stroke-width=".97"/>
  <path d="M682.954 251.125v49.906h46.875v-49.905h-46.876zM682.954 201.25H636.11v49.875h46.844V201.25z" fill="none" stroke="#000" stroke-width=".97"/>
  <path d="M682.954 201.25v49.875h46.875V201.25h-46.876zM682.954 151.344H636.11v49.906h46.844v-49.906z" fill="none" stroke="#000" stroke-width=".97"/>
  <path d="M682.954 151.344v49.906h46.875v-49.906h-46.876zM682.954 101.437H636.11v49.907h46.844v-49.907z" fill="none" stroke="#000" stroke-width=".97"/>
  <path d="M682.954 101.437v49.907h46.875v-49.907h-46.876z" fill="none" stroke="#000" stroke-width=".97"/>
  <path d="M682.954 51.563H636.11v49.874h46.844V51.563z" fill="none" stroke="#000" stroke-width=".97"/>
  <path d="M682.954 51.563v49.874h46.875V51.563h-46.876zM636.11 1.656v49.907h46.844V1.656H636.11zM589.235 1.656v49.907h46.875V1.656h-46.875zM542.36 1.656v49.907h46.875V1.656H542.36zM495.516 1.656v49.907h46.844V1.656h-46.844zM448.64 1.656v49.907h46.876V1.656H448.64z" fill="none" stroke="#000" stroke-width=".97"/>
  <path d="M401.766 1.656v49.907h46.875V1.656h-46.874zM354.923 1.656v49.907h46.843V1.656h-46.843zM308.048 1.656v49.907h46.875V1.656h-46.875zM261.173 1.656v49.907h46.875V1.656h-46.875zM214.33 1.656v49.907h46.843V1.656H214.33zM167.454 1.656v49.907h46.875V1.656h-46.876z" fill="none" stroke="#000" stroke-width=".97"/>
  <path d="M120.61 1.656v49.907h46.844V1.656H120.61zM73.735 7.97v43.593h46.875V1.656H97.766c-8.502.97-16.557 3.14-24.03 6.313zM30.86 51.563h42.875V7.968C53.715 16.47 38.15 32.18 30.86 51.562z" fill="none" stroke="#000" stroke-width=".97"/>
  <path d="M26.86 67.5v33.937h46.875V51.562H30.86c-1.915 5.092-3.303 10.408-4 15.938zM26.86 534.53V67.5c-.366 2.906-.594 5.844-.594 8.844v449.344c0 3 .228 5.937.594 8.843zM30.86 550.5h42.875v-49.875H26.86v33.906c.698 5.54 2.08 10.87 4 15.97z" fill="none" stroke="#000" stroke-width=".97"/>
  <path d="M73.735 594.03V550.5H30.86c7.294 19.368 22.865 35.035 42.875 43.53zM97.985 600.406h22.625V550.5H73.735v43.53c7.54 3.202 15.667 5.42 24.25 6.376zM706.516 600.406H97.985c3.274.365 6.585.594 9.97.594h588.593c3.383 0 6.695-.23 9.968-.594zM729.83 594.47V550.5h-46.876v49.906h23.562c8.214-.915 16.048-2.96 23.313-5.937z" fill="none" stroke="#000" stroke-width=".97"/>
  <path d="M773.64 550.5h-43.81v43.97c20.477-8.395 36.4-24.29 43.81-43.97zM776.704 540.344v-39.72H729.83V550.5h43.81c1.244-3.298 2.323-6.665 3.064-10.156z" fill="none" stroke="#000" stroke-width=".97"/>
  <path d="M776.704 61.687v478.658c1.007-4.742 1.53-9.637 1.53-14.658V76.344c0-5.02-.523-9.916-1.53-14.656z" fill="none" stroke="#000" stroke-width=".97"/>
  <path d="M773.673 51.563H729.83v49.874h46.874v-39.75c-.74-3.478-1.796-6.838-3.03-10.124zM729.83 7.53v44.032h43.843c-7.407-19.698-23.352-35.63-43.844-44.03z" fill="none" stroke="#000" stroke-width=".97"/>
  <path d="M706.735 1.656h-23.78v49.907h46.874V7.53c-7.2-2.95-14.962-4.947-23.095-5.874z" fill="none" stroke="#000" stroke-width=".97"/>
  <path d="M107.954 1c-3.46 0-6.843.275-10.188.656H706.734C703.392 1.276 700.008 1 696.55 1H107.954z" fill="none" stroke="#000" stroke-width=".97"/>
  <path d="M326.976 418.588c.384.806.516 1.82.397 3.044-.11 1.232-.473 2.71-1.088 4.432l-2.928 8.423-2.952-3.04 2.768-7.888c.73-2.053 1.007-3.628.83-4.726-.17-1.09-.797-2.194-1.885-3.315l-2.994-3.084-8.842 8.585-2.748-2.83 20.92-20.313 6.205 6.39c2.32 2.392 3.554 4.66 3.697 6.81.143 2.146-.794 4.2-2.812 6.16-1.317 1.278-2.71 2.03-4.177 2.258-1.458.236-2.922-.066-4.392-.907m1.9-15.622l-7.426 7.212 3.456 3.56c1.324 1.363 2.635 2.086 3.932 2.17 1.316.084 2.585-.468 3.81-1.657 1.223-1.187 1.803-2.43 1.74-3.73-.046-1.3-.73-2.63-2.055-3.994l-3.456-3.56M354.155 428.187c-1.996-2.055-4.35-2.946-7.06-2.673-2.703.282-5.375 1.707-8.02 4.274-2.634 2.558-4.132 5.183-4.494 7.876-.35 2.702.47 5.08 2.465 7.136 1.996 2.055 4.34 2.936 7.033 2.645 2.702-.283 5.37-1.703 8.005-4.26 2.644-2.568 4.146-5.198 4.508-7.89.372-2.684-.44-5.053-2.435-7.108m2.298-2.23c2.848 2.932 4.14 6.234 3.873 9.904-.256 3.662-2.038 7.098-5.345 10.31-3.297 3.2-6.784 4.88-10.46 5.038-3.667.15-6.925-1.244-9.773-4.177-2.857-2.942-4.162-6.248-3.914-9.92.256-3.66 2.038-7.096 5.345-10.307 3.307-3.21 6.794-4.89 10.46-5.04 3.686-.147 6.958 1.25 9.815 4.193M366.945 437.52l17.185 17.697-2.383 2.313-7.21-7.427-18.54 18-2.76-2.844 18.537-18-7.21-7.428 2.38-2.313M388.62 465.42l-14.14 6.27 7.47 7.694 6.67-13.963m1.238-4.304l3.115 3.21-13.18 28.286-2.856-2.943 3.516-7.118-9.156-9.43-7.217 3.305-2.898-2.985 28.676-12.326M398.674 470.196l17.184 17.698-2.382 2.313-7.21-7.426-18.54 18-2.762-2.844 18.54-18-7.212-7.427 2.382-2.314M418.525 490.64l12.844 13.23-2.383 2.312-10.096-10.398-6.192 6.014 9.673 9.963-2.38 2.314-9.674-9.963-7.58 7.362 10.34 10.65-2.383 2.312-13.09-13.48 20.922-20.313M436.58 513.89l-16.268 15.796 3.32 3.42c2.802 2.886 5.506 4.362 8.11 4.428 2.615.076 5.333-1.256 8.154-3.996 2.802-2.72 4.2-5.384 4.192-7.99.01-2.606-1.385-5.352-4.188-8.24l-3.32-3.418m-.422-5.09l5.647 5.816c3.936 4.054 5.98 7.85 6.13 11.39.16 3.528-1.554 7.034-5.14 10.517-3.607 3.5-7.18 5.12-10.722 4.856-3.54-.265-7.27-2.415-11.19-6.45l-5.646-5.816 20.92-20.313"/>
  <g>
    <path d="M609.252 72.537c.384.807.516 1.822.397 3.045-.11 1.232-.474 2.71-1.088 4.43l-2.928 8.425-2.953-3.04 2.77-7.888c.73-2.053 1.006-3.628.83-4.726-.17-1.09-.798-2.194-1.886-3.315l-2.993-3.084-8.84 8.585-2.75-2.83 20.92-20.313 6.205 6.39c2.322 2.39 3.555 4.66 3.698 6.808.144 2.148-.794 4.2-2.81 6.16-1.32 1.28-2.71 2.033-4.178 2.26-1.46.236-2.923-.066-4.393-.908m1.9-15.62l-7.425 7.21 3.456 3.56c1.324 1.363 2.635 2.087 3.932 2.17 1.315.084 2.585-.468 3.81-1.656 1.222-1.187 1.802-2.43 1.74-3.73-.047-1.3-.73-2.63-2.056-3.995l-3.457-3.56M636.43 82.137c-1.994-2.056-4.348-2.947-7.06-2.673-2.7.282-5.374 1.707-8.018 4.274-2.634 2.558-4.132 5.183-4.494 7.876-.353 2.7.468 5.08 2.464 7.135 1.995 2.054 4.34 2.936 7.033 2.644 2.702-.282 5.37-1.702 8.004-4.26 2.643-2.567 4.146-5.197 4.508-7.89.37-2.683-.44-5.052-2.437-7.107m2.3-2.232c2.847 2.934 4.138 6.235 3.873 9.905-.257 3.66-2.04 7.097-5.346 10.308-3.297 3.202-6.784 4.882-10.46 5.04-3.668.148-6.925-1.244-9.773-4.177-2.858-2.942-4.162-6.25-3.915-9.92.256-3.66 2.037-7.096 5.344-10.307 3.307-3.21 6.794-4.89 10.46-5.04 3.687-.148 6.958 1.25 9.815 4.192M649.222 91.47l17.184 17.697-2.382 2.313-7.21-7.427-18.54 18-2.762-2.844 18.54-18.002-7.212-7.426 2.382-2.313M670.897 119.37l-14.14 6.27 7.47 7.693 6.67-13.962m1.237-4.304l3.116 3.21-13.18 28.285-2.857-2.94 3.517-7.118-9.157-9.43-7.217 3.305-2.898-2.985 28.676-12.326M680.95 124.146l17.185 17.698-2.382 2.313-7.212-7.427-18.537 18-2.762-2.844 18.54-18-7.212-7.427 2.383-2.314M700.8 144.59l12.845 13.228-2.382 2.313-10.095-10.396-6.194 6.014 9.674 9.963-2.382 2.314-9.674-9.963-7.58 7.36 10.34 10.65-2.383 2.314-13.09-13.48 20.92-20.314M718.857 167.84l-16.27 15.796 3.32 3.42c2.804 2.886 5.508 4.362 8.113 4.428 2.614.075 5.33-1.257 8.152-3.996 2.803-2.72 4.2-5.385 4.193-7.99.01-2.606-1.386-5.353-4.188-8.24l-3.32-3.418m-.423-5.09l5.647 5.816c3.937 4.054 5.98 7.85 6.132 11.39.16 3.528-1.554 7.034-5.142 10.517-3.606 3.5-7.18 5.12-10.72 4.856-3.542-.265-7.27-2.415-11.19-6.45l-5.646-5.816 20.92-20.313"/>
  </g>
  <g>
    <path d="M92.054 73.548c.384.806.516 1.82.397 3.044-.11 1.232-.472 2.71-1.086 4.432l-2.928 8.423-2.953-3.04 2.768-7.888c.73-2.053 1.008-3.628.83-4.726-.167-1.09-.796-2.194-1.884-3.315l-2.993-3.084-8.842 8.585-2.748-2.83 20.92-20.313 6.205 6.39c2.322 2.39 3.555 4.66 3.698 6.81.144 2.146-.794 4.2-2.81 6.16-1.32 1.278-2.71 2.03-4.178 2.258-1.46.236-2.923-.066-4.393-.907m1.9-15.622l-7.425 7.21 3.454 3.56c1.325 1.364 2.635 2.088 3.933 2.172 1.315.084 2.585-.47 3.81-1.657 1.222-1.187 1.802-2.43 1.74-3.73-.047-1.3-.732-2.63-2.056-3.994l-3.455-3.56M119.233 83.147c-1.996-2.055-4.35-2.946-7.06-2.673-2.702.282-5.375 1.707-8.02 4.274-2.633 2.558-4.13 5.183-4.493 7.876-.353 2.702.468 5.08 2.464 7.135 1.995 2.055 4.34 2.936 7.033 2.644 2.702-.282 5.37-1.702 8.004-4.26 2.645-2.567 4.148-5.197 4.51-7.89.37-2.683-.44-5.052-2.437-7.107m2.298-2.232c2.85 2.934 4.14 6.235 3.875 9.906-.257 3.662-2.04 7.098-5.346 10.31-3.298 3.2-6.785 4.88-10.462 5.038-3.667.148-6.924-1.244-9.772-4.177-2.858-2.942-4.163-6.248-3.915-9.92.257-3.66 2.04-7.096 5.346-10.307 3.307-3.21 6.794-4.89 10.46-5.04 3.687-.147 6.958 1.25 9.815 4.192M132.024 92.48l17.184 17.697-2.382 2.313-7.21-7.427-18.54 18-2.762-2.844 18.54-18.002-7.212-7.426 2.382-2.313M153.698 120.38l-14.14 6.27 7.47 7.694 6.67-13.963m1.238-4.304l3.116 3.21-13.18 28.285-2.857-2.94 3.517-7.118-9.157-9.43-7.217 3.305-2.898-2.985 28.676-12.326M163.752 125.156l17.185 17.698-2.383 2.313-7.21-7.427-18.54 18-2.76-2.844 18.537-18-7.21-7.427 2.382-2.314M183.603 145.6l12.844 13.228-2.382 2.313-10.095-10.396-6.194 6.014 9.674 9.963-2.382 2.314-9.674-9.963-7.58 7.36 10.34 10.65-2.383 2.314-13.087-13.48 20.92-20.314M201.66 168.85l-16.27 15.796 3.32 3.42c2.803 2.886 5.507 4.362 8.11 4.428 2.615.075 5.333-1.257 8.154-3.996 2.803-2.72 4.2-5.385 4.193-7.99.01-2.606-1.386-5.352-4.19-8.24l-3.318-3.418m-.424-5.09l5.647 5.816c3.936 4.054 5.98 7.85 6.13 11.39.16 3.528-1.554 7.034-5.14 10.517-3.607 3.5-7.18 5.12-10.72 4.856-3.543-.265-7.273-2.415-11.19-6.45l-5.647-5.816 20.92-20.313"/>
  </g>
</svg>
